<?xml version="1.0" encoding="UTF-8" standalone="no"?>
<svg xmlns:dc="http://purl.org/dc/elements/1.1/"
   xmlns:cc="http://creativecommons.org/ns#"
   xmlns:rdf="http://www.w3.org/1999/02/22-rdf-syntax-ns#"
   xmlns:svg="http://www.w3.org/2000/svg"
   xmlns="http://www.w3.org/2000/svg"
   xmlns:sodipodi="http://sodipodi.sourceforge.net/DTD/sodipodi-0.dtd"
   xmlns:inkscape="http://www.inkscape.org/namespaces/inkscape" sodipodi:docname="crosscountry.svg" inkscape:version="1.0 (4035a4fb49, 2020-05-01)" id="svg8" version="1.1" viewBox="0 0 86.774597 83.46534" height="14" width="14">
   <defs id="defs2" />
   <sodipodi:namedview inkscape:window-maximized="0" inkscape:window-y="228" inkscape:window-x="228" inkscape:window-height="1228" inkscape:window-width="1624" fit-margin-bottom="0" fit-margin-right="0" fit-margin-left="0" fit-margin-top="0" showgrid="false" inkscape:document-rotation="0" inkscape:current-layer="layer1" inkscape:document-units="mm" inkscape:cy="-216.45772" inkscape:cx="196.31467" inkscape:zoom="0.35" inkscape:pageshadow="2" inkscape:pageopacity="0.0" borderopacity="1.0" bordercolor="#666666" pagecolor="#ffffff" id="base" />
   <g transform="translate(-53.891744,-205.43777)" id="layer1" inkscape:groupmode="layer" inkscape:label="Layer 1">
      <path id="path847" d="m 94.208961,288.2293 c -0.678155,-0.67816 -0.6949,-1.37621 -0.0523,-2.18001 0.19973,-0.24983 4.889,-0.34103 20.406679,-0.39688 22.87787,-0.0823 20.66631,0.15731 22.63703,-2.45288 1.23259,-1.63256 1.89023,-1.94553 2.81495,-1.33963 1.02484,0.6715 0.85257,1.6999 -0.60827,3.63122 -0.94272,1.24634 -1.64871,1.86172 -2.82527,2.46266 l -1.5685,0.80113 -20.06525,0.0741 -20.065249,0.0741 z m -19.192936,-1.82405 c -1.635371,-0.5844 -2.914669,-1.52424 -3.647337,-2.67954 -0.387138,-0.61046 -3.833802,-7.73162 -7.659248,-15.82482 -4.934061,-10.4386 -6.930784,-14.92648 -6.870792,-15.44293 0.05306,-0.45681 0.34427,-0.87313 0.781682,-1.11751 0.617696,-0.34511 0.768559,-0.34267 1.324234,0.0214 0.442161,0.28971 2.686791,4.77205 7.610644,15.1978 3.840941,8.1328 7.201517,15.09964 7.467952,15.48188 0.72934,1.04636 2.049224,1.55398 4.04056,1.55398 1.891266,0 2.804285,0.51686 2.804285,1.5875 0,1.11039 -0.902939,1.58844 -2.976563,1.57589 -1.055026,-0.006 -2.348963,-0.16554 -2.875417,-0.35367 z m 30.804385,-2.81226 c -0.31894,-0.12847 -0.78377,-0.54474 -1.03296,-0.92505 -0.40749,-0.62191 -0.42139,-0.94945 -0.13816,-3.25538 0.23139,-1.88388 0.24365,-3.61654 0.0462,-6.53265 -0.14778,-2.18282 -0.27115,-4.47557 -0.27414,-5.095 -0.006,-1.21588 -1.09266,-2.94956 -8.127039,-12.96472 -5.871183,-8.35906 -5.862335,-8.21 -0.99356,-16.74224 2.67137,-4.68143 2.75723,-5.00226 1.34175,-5.01379 -0.27355,-0.002 -2.828415,1.44673 -5.67748,3.2199 -4.52311,2.81504 -5.351843,3.23818 -6.53407,3.33622 -1.444186,0.11977 -2.985188,-0.45498 -3.883604,-1.44847 -0.695696,-0.76931 -1.266862,-2.33759 -1.266862,-3.47849 v -1.02962 l -12.369271,-9.59916 c -6.803098,-5.27954 -12.518098,-9.78389 -12.699999,-10.00966 -0.420013,-0.52131 -0.427372,-1.69438 -0.01323,-2.10852 0.9784,-0.9784 1.532506,-0.61702 14.329272,9.34532 6.818799,5.30847 12.533798,9.64803 12.699999,9.64346 0.166203,-0.005 2.29077,-1.53658 4.721264,-3.40447 4.613984,-3.54597 5.854856,-4.27857 8.346091,-4.92746 2.17501,-0.56652 3.61715,-0.483 8.798369,0.50952 7.70067,1.47514 9.31085,2.41508 14.9023,8.69916 2.02013,2.27038 4.00257,4.25351 4.42828,4.42984 0.61835,0.25613 1.36003,0.23436 3.75082,-0.11011 4.2471,-0.61194 5.42496,-0.56864 6.61994,0.24337 1.25619,0.85361 1.84514,2.0013 1.84514,3.59571 0,1.46285 -0.76235,2.90275 -1.88929,3.56845 -0.70961,0.41917 -0.86598,1.00605 -5.33256,20.01295 -4.07694,17.34886 -4.66983,19.62587 -5.20073,19.97373 -0.77009,0.50458 -1.85928,0.24199 -2.21045,-0.53291 -0.2088,-0.46073 0.34131,-3.16538 2.54122,-12.49426 5.09024,-21.5855 5.9082,-25.12846 5.82141,-25.21524 -0.0472,-0.0472 -1.66645,0.41243 -3.59827,1.02149 -2.8942,0.91246 -3.75529,1.08229 -4.89241,0.96493 -1.77768,-0.18347 -2.39495,-0.52651 -5.27602,-2.93201 -1.30969,-1.0935 -2.46045,-1.90544 -2.55725,-1.80431 -0.28197,0.29461 -3.42406,7.55194 -3.45891,7.98909 -0.0174,0.21828 1.77316,2.94271 3.97902,6.05428 2.34238,3.30413 4.07719,6.012 4.17059,6.50988 0.088,0.46886 -0.0953,3.68028 -0.40714,7.13647 l -0.56706,6.28399 1.3386,1.98142 c 1.665,2.46456 1.79412,3.61821 0.52455,4.68649 l -0.81405,0.68497 -5.20522,-0.0168 c -2.86287,-0.009 -5.46617,-0.12188 -5.7851,-0.25035 z M 72.528994,273.22586 c -0.752998,-0.59231 -4.891153,-8.79333 -4.889166,-9.68938 0.0013,-0.62831 0.930873,-2.07965 1.540992,-2.40617 0.28158,-0.1507 3.770529,-0.70654 7.75322,-1.23521 3.98269,-0.52866 7.535674,-1.09763 7.895518,-1.26436 0.359844,-0.16673 1.711311,-1.82714 3.003264,-3.68979 l 2.349002,-3.38665 1.257673,1.79926 c 0.691722,0.98959 2.330077,3.34707 3.640794,5.23884 l 2.38311,3.43959 -1.52634,3.05595 c -1.69411,3.39183 -2.952363,4.79429 -4.731048,5.27324 -0.999156,0.26904 -5.431456,0.21496 -10.867175,-0.13261 l -1.984375,-0.12689 -0.747736,1.1841 c -1.570487,2.48697 -3.463147,3.21012 -5.077733,1.94008 z m 39.822716,-49.39348 c -1.97823,-0.64743 -3.66006,-2.1563 -4.81548,-4.32024 -0.52196,-0.97757 -0.60677,-1.52471 -0.60677,-3.91453 0,-2.72242 0.0207,-2.81683 1.03118,-4.70819 1.86021,-3.48176 4.8439,-5.45837 8.22924,-5.45163 3.14656,0.006 5.69264,1.58024 7.23275,4.47128 0.63453,1.19111 0.70475,1.5997 0.70475,4.10104 0,2.46038 -0.0811,2.95116 -0.7091,4.29103 -0.93442,1.99364 -2.84485,3.9985 -4.65327,4.88328 -1.15033,0.5628 -1.91399,0.73006 -3.60483,0.78954 -1.17992,0.0415 -2.44373,-0.0222 -2.80847,-0.14158 z" style="fill:#ffffff;fill-opacity:1;stroke-width:0.264583" />
   </g>
</svg>
