<svg xmlns:dc="http://purl.org/dc/elements/1.1/"
   xmlns:cc="http://creativecommons.org/ns#"
   xmlns:rdf="http://www.w3.org/1999/02/22-rdf-syntax-ns#"
   xmlns:svg="http://www.w3.org/2000/svg"
   xmlns="http://www.w3.org/2000/svg"
   xmlns:sodipodi="http://sodipodi.sourceforge.net/DTD/sodipodi-0.dtd"
   xmlns:inkscape="http://www.inkscape.org/namespaces/inkscape" sodipodi:docname="dumbell.svg" inkscape:version="1.0 (4035a4fb49, 2020-05-01)" id="svg8" version="1.1" viewBox="0 0 101.59998 65.939697" height="65.939697mm" width="101.59998mm">
   <defs id="defs2" />
   <g transform="translate(-55.959367,-115.75529)" id="layer1" inkscape:groupmode="layer" inkscape:label="Layer 1">
      <path id="path847" d="m 73.888611,181.51716 c -1.197141,-0.38008 -2.483837,-1.28772 -3.250586,-2.29297 -1.154443,-1.51356 -1.449501,-2.9567 -1.449308,-7.08864 l 1.72e-4,-3.72826 -3.692757,0.0913 c -4.48845,0.11092 -5.863445,-0.24048 -7.55332,-1.93036 -2.005285,-2.00528 -1.983435,-1.8084 -1.983435,-17.87236 0,-16.06395 -0.02186,-15.86707 1.983435,-17.87236 1.689875,-1.68987 3.06487,-2.04127 7.55332,-1.93035 l 3.692757,0.0913 -1.72e-4,-3.72827 c -2.51e-4,-5.35199 0.718471,-7.20136 3.414665,-8.78641 1.183669,-0.69586 1.325782,-0.71449 5.448702,-0.71449 4.68154,0 5.128323,0.11888 6.825567,1.81612 1.876221,1.87622 1.896438,1.99293 1.98842,11.47919 l 0.08274,8.53281 h 19.810559 19.81057 l 0.0827,-8.53281 c 0.092,-9.48626 0.1122,-9.60297 1.98842,-11.47919 1.69724,-1.69724 2.14402,-1.81612 6.82556,-1.81612 4.12292,0 4.26504,0.0186 5.44871,0.71449 2.69619,1.58505 3.41491,3.43442 3.41466,8.78641 l -1.7e-4,3.72827 3.69276,-0.0913 c 4.48845,-0.11092 5.86344,0.24048 7.55331,1.93035 2.00529,2.00529 1.98344,1.80841 1.98344,17.87236 0,16.06396 0.0219,15.86708 -1.98344,17.87236 -1.68987,1.68988 -3.06486,2.04128 -7.55331,1.93036 l -3.69276,-0.0913 1.7e-4,3.72826 c 2.5e-4,5.352 -0.71847,7.20137 -3.41466,8.78641 -1.18367,0.69586 -1.32579,0.7145 -5.44871,0.7145 -4.68154,0 -5.12832,-0.11888 -6.82556,-1.81612 -1.87622,-1.87623 -1.89644,-1.99293 -1.98842,-11.47919 l -0.0827,-8.53282 H 106.75937 86.948812 l -0.08274,8.53282 c -0.09198,9.48626 -0.112199,9.60296 -1.98842,11.47919 -1.638488,1.63849 -2.199381,1.80138 -6.428692,1.86706 -2.110052,0.0328 -4.162208,-0.0438 -4.560349,-0.17024 z m 7.899699,-4.86703 0.629398,-0.73172 v -27.22258 -27.22257 l -0.63855,-0.74236 c -0.630854,-0.73341 -0.675238,-0.74236 -3.682849,-0.74236 -2.857765,0 -3.086137,0.0393 -3.727077,0.64144 l -0.682773,0.64143 v 27.42442 27.42443 l 0.595312,0.54887 c 0.823632,0.75939 1.27997,0.8421 4.265393,0.77309 2.490351,-0.0576 2.641005,-0.0944 3.241146,-0.79209 z m 57.37065,0.10269 0.67333,-0.63256 v -27.42443 -27.42442 l -0.68277,-0.64143 c -0.64094,-0.60213 -0.86932,-0.64144 -3.72708,-0.64144 -3.00761,0 -3.052,0.009 -3.68285,0.74236 l -0.63855,0.74236 v 27.20165 c 0,26.89046 0.006,27.20942 0.53444,27.88107 0.67326,0.85591 1.11986,0.94795 4.28234,0.88252 2.3041,-0.0477 2.63696,-0.11809 3.24114,-0.68568 z m -70.61985,-13.36059 0.649433,-0.64943 v -14.04697 -14.04697 l -0.649433,-0.64943 c -0.615707,-0.6157 -0.810615,-0.64943 -3.753258,-0.64943 -2.822627,0 -3.159307,0.0521 -3.716194,0.57529 l -0.612365,0.57529 v 14.15817 14.15819 l 0.575286,0.61236 c 0.538684,0.5734 0.775139,0.61237 3.716195,0.61237 2.98201,0 3.173759,-0.0329 3.790336,-0.64944 z m 83.90998,0.0741 0.61236,-0.57529 v -14.15818 -14.15818 l -0.57528,-0.61236 c -0.53869,-0.5734 -0.77514,-0.61237 -3.7162,-0.61237 -2.98201,0 -3.17376,0.0328 -3.79033,0.64943 l -0.64944,0.64943 v 14.04697 14.04697 l 0.64944,0.64943 c 0.6157,0.61571 0.81061,0.64944 3.75325,0.64944 2.82263,0 3.15931,-0.0521 3.7162,-0.57529 z M 126.60312,148.69578 V 142.0812 H 106.75937 86.915625 v 6.61458 6.61459 h 19.843745 19.84375 z" style="fill:#ffffff;stroke-width:0.264583" />
   </g>
</svg>
