<?xml version="1.0" encoding="UTF-8" standalone="no"?>
<svg xmlns:dc="http://purl.org/dc/elements/1.1/"
   xmlns:cc="http://creativecommons.org/ns#"
   xmlns:rdf="http://www.w3.org/1999/02/22-rdf-syntax-ns#"
   xmlns:svg="http://www.w3.org/2000/svg"
   xmlns="http://www.w3.org/2000/svg"
   xmlns:sodipodi="http://sodipodi.sourceforge.net/DTD/sodipodi-0.dtd"
   xmlns:inkscape="http://www.inkscape.org/namespaces/inkscape" sodipodi:docname="hiking.svg" inkscape:version="1.0 (4035a4fb49, 2020-05-01)" id="svg855" version="1.1" viewBox="0 0 58.248898 84.513229" height="14" width="14">
   <defs id="defs849" />
   <sodipodi:namedview inkscape:window-maximized="1" inkscape:window-y="-11" inkscape:window-x="-11" inkscape:window-height="2054" inkscape:window-width="3840" fit-margin-bottom="0" fit-margin-right="0" fit-margin-left="0" fit-margin-top="0" showgrid="false" inkscape:document-rotation="0" inkscape:current-layer="layer1" inkscape:document-units="mm" inkscape:cy="-129.32679" inkscape:cx="89.653452" inkscape:zoom="0.35" inkscape:pageshadow="2" inkscape:pageopacity="0.0" borderopacity="1.0" bordercolor="#666666" pagecolor="#ffffff" id="base" />
   <g transform="translate(-82.112524,-182.38438)" id="layer1" inkscape:groupmode="layer" inkscape:label="Layer 1">
      <path id="path2001" d="m 134.39631,266.27736 -0.64944,-0.64943 v -20.76531 -20.76531 l -6.68073,-0.0827 -6.68073,-0.0827 -1.51524,-0.74408 c -0.90461,-0.44421 -1.97473,-1.26933 -2.65543,-2.04748 l -1.14019,-1.30341 -0.98259,2.98546 c -1.13345,3.44385 -1.25619,5.2245 -0.46677,6.77188 0.2837,0.5561 2.42526,3.08144 4.75903,5.61186 2.72097,2.95026 4.50548,5.12282 4.97429,6.05598 l 0.73107,1.4552 v 9.525 9.525 l -0.68004,1.32292 c -0.85047,1.65445 -2.5029,2.95196 -4.05604,3.18487 -2.2803,0.34195 -5.5992,-1.18838 -6.78106,-3.12672 -0.47682,-0.78203 -0.5195,-1.35711 -0.52041,-7.01196 -8e-4,-4.7908 -0.0866,-6.36487 -0.38599,-7.08148 -0.55819,-1.33595 -3.91081,-5.20865 -4.16145,-4.80701 -0.11034,0.17681 -0.28024,0.84821 -0.37757,1.492 -0.15153,1.00231 -1.15078,2.46595 -6.95303,10.1843 -4.491117,5.97425 -7.137819,9.2645 -7.848833,9.75731 -1.277684,0.88557 -3.396494,1.18959 -5.093796,0.73088 -1.401881,-0.37887 -3.146832,-1.90809 -3.790862,-3.32219 -0.639165,-1.40342 -0.635395,-3.89559 0.008,-5.31228 0.269521,-0.59343 2.998967,-4.42796 6.065438,-8.52119 3.681296,-4.91393 5.629156,-7.73832 5.733637,-8.31376 0.08703,-0.47933 0.123174,-2.88434 0.08031,-5.34445 l -0.07792,-4.47294 -1.455208,-0.50386 c -0.800365,-0.27713 -3.294917,-1.09408 -5.54345,-1.81544 -2.248532,-0.72137 -4.360233,-1.4898 -4.692669,-1.70762 -1.44894,-0.94938 -1.83201,-2.69841 -1.04515,-4.77196 0.586928,-1.54669 7.447075,-22.43431 8.089566,-24.63093 0.419682,-1.43485 0.772567,-2.08625 1.454631,-2.68511 1.496618,-1.31404 2.306026,-1.29219 7.917368,0.21381 2.744318,0.73654 5.316248,1.50804 5.715408,1.71445 0.9453,0.48884 2.33955,2.08645 2.54894,2.92072 0.19536,0.77837 0.0689,0.75627 1.32492,0.23146 1.34716,-0.56288 3.62353,-0.56081 5.32655,0.005 2.26503,0.75232 3.7263,2.33935 7.80654,8.4784 2.03537,3.06237 3.88861,5.71677 4.11832,5.89867 0.28294,0.22405 1.46814,0.33073 3.67438,0.33073 h 3.25672 v -3.84848 c 0,-3.73327 0.0195,-3.86792 0.64944,-4.49791 0.75676,-0.75677 1.13077,-0.80263 1.93752,-0.23756 0.56568,0.39621 0.58804,0.57164 0.58804,4.61238 0,3.97189 0.0289,4.20966 0.5306,4.3689 0.78574,0.24939 2.08001,1.41291 2.52161,2.26689 0.21306,0.412 0.38738,1.33245 0.38738,2.04545 0,1.56064 -0.96048,3.07223 -2.46749,3.88331 l -0.9721,0.52319 v 21.0915 21.09149 l -0.58804,0.41188 c -0.80675,0.56507 -1.18076,0.51922 -1.93752,-0.23755 z m -44.142209,-3.11709 c 0.454163,-0.20693 3.013311,-3.3875 6.97211,-8.6651 3.440019,-4.58599 6.333009,-8.46851 6.428889,-8.62782 0.0959,-0.15931 0.4194,-1.38993 0.71894,-2.73473 l 0.54463,-2.44508 -2.97983,-3.54912 c -1.63891,-1.95202 -3.059981,-3.54913 -3.157929,-3.54913 -0.09795,0 -0.218099,1.93477 -0.266999,4.29948 -0.08337,4.03164 -0.130832,4.37365 -0.761842,5.4901 -0.370112,0.65485 -3.000348,4.28852 -5.844966,8.07483 -2.844617,3.78631 -5.309999,7.142 -5.478629,7.45708 -0.38372,0.71699 -0.397102,2.32544 -0.02513,3.02048 0.362386,0.67712 1.800071,1.55368 2.550353,1.55496 0.320574,5.3e-4 0.905756,-0.14613 1.300403,-0.32595 z m 29.080369,-0.25374 c 1.39515,-0.63567 1.44782,-1.02252 1.44782,-10.63375 0,-4.8727 -0.1115,-9.15271 -0.24777,-9.51113 -0.13627,-0.35843 -2.27503,-2.87941 -4.7528,-5.6022 -2.47777,-2.72278 -4.7508,-5.45821 -5.05118,-6.07871 -0.30038,-0.62051 -0.67716,-1.8875 -0.83729,-2.81555 -0.16013,-0.92805 -0.31813,-1.71965 -0.35112,-1.75912 -0.033,-0.0395 -0.78578,0.28835 -1.67289,0.72849 -1.66602,0.82659 -5.40361,1.84864 -6.79841,1.85901 -0.43656,0.003 -0.92772,0.0934 -1.091468,0.20029 -0.188447,0.12304 2.310278,3.2534 6.807838,8.52876 3.90807,4.58391 7.37579,8.87016 7.70606,9.525 0.56789,1.126 0.60498,1.54576 0.68335,7.73295 l 0.0829,6.54233 0.71088,0.49755 c 0.62976,0.44078 1.96822,1.02332 2.48438,1.08128 0.10229,0.0115 0.49817,-0.12135 0.87973,-0.2952 z M 96.099634,227.55669 c 0.176257,-0.11201 0.494038,-0.61907 0.70618,-1.12679 0.41855,-1.00174 5.997016,-16.38122 6.071606,-16.73907 0.0582,-0.27911 -11.433117,-3.61744 -11.588221,-3.36648 -0.26412,0.42736 -5.994008,18.05978 -5.899481,18.15431 0.05663,0.0566 1.107737,0.3979 2.33579,0.75837 1.228055,0.36047 3.423451,1.06847 4.87866,1.57334 2.923278,1.0142 3.036062,1.03828 3.495466,0.74632 z m 7.327046,-2.16298 c 4.95603,-1.26755 8.08549,-4.08595 9.18609,-8.27305 0.28772,-1.0946 0.26148,-1.18177 -0.93661,-3.11054 -1.4501,-2.33446 -1.53778,-3.35 -0.33863,-3.92195 1.08894,-0.51938 1.71209,0.008 3.53523,2.99194 3.35144,5.48533 4.15105,6.57237 5.24807,7.13454 0.9757,0.5 1.614,0.54877 8.17468,0.62454 5.05991,0.0584 7.3355,-0.009 7.87472,-0.23193 0.94196,-0.39017 1.26854,-1.43076 0.6451,-2.05547 -0.37066,-0.3714 -1.2593,-0.46141 -5.6567,-0.57292 -4.95254,-0.12558 -5.26142,-0.16399 -6.09395,-0.75778 -0.52024,-0.37106 -2.39018,-2.90028 -4.59695,-6.21771 -2.04599,-3.07571 -4.0326,-5.93054 -4.41469,-6.34404 -2.50837,-2.71465 -6.52834,-2.24181 -8.07608,0.94992 -0.37057,0.76417 -2.09374,5.31847 -3.82926,10.12066 -1.73553,4.80218 -3.28369,9.05867 -3.44036,9.45885 -0.35719,0.91233 -0.11726,0.93041 2.71934,0.20494 z m 0.95271,-19.7841 c 0.13902,-0.40018 0.42557,-1.05046 0.63678,-1.44506 0.55524,-1.03734 0.39997,-3.25691 -0.27506,-3.93194 -0.53587,-0.53588 -8.699738,-2.89123 -10.02126,-2.89123 -0.552974,0 -0.706691,0.28103 -1.433679,2.62104 -0.447863,1.44157 -0.814295,2.73422 -0.814295,2.87254 0,0.21534 10.366374,3.39835 11.317484,3.47505 0.1855,0.0149 0.45102,-0.30022 0.59003,-0.7004 z m 12.2639,-6.96708 c -1.85967,-0.71517 -3.6169,-2.33357 -4.51125,-4.15483 -0.63674,-1.29666 -0.74246,-1.83217 -0.74246,-3.7609 0,-2.63045 0.55404,-4.04274 2.28616,-5.82758 4.05338,-4.17672 11.03786,-2.98201 13.63818,2.33286 0.6108,1.24844 0.73745,1.85408 0.73745,3.5267 0,1.78427 -0.10743,2.23002 -0.92256,3.82803 -1.97471,3.87126 -6.457,5.60498 -10.48552,4.05572 z m 4.8751,-3.03498 c 2.51006,-1.04851 3.86045,-3.59081 3.20881,-6.04106 -0.62489,-2.34968 -2.57698,-3.86678 -4.97548,-3.86678 -1.61043,0 -2.57022,0.34271 -3.56686,1.27361 -2.21801,2.0717 -2.28714,5.33557 -0.1581,7.46461 1.5292,1.5292 3.58344,1.96672 5.49163,1.16962 z" style="fill:#ffffff;stroke-width:0.264583" />
   </g>
</svg>
