<?xml version="1.0" encoding="UTF-8" standalone="no"?>
<svg xmlns:dc="http://purl.org/dc/elements/1.1/"
   xmlns:cc="http://creativecommons.org/ns#"
   xmlns:rdf="http://www.w3.org/1999/02/22-rdf-syntax-ns#"
   xmlns:svg="http://www.w3.org/2000/svg"
   xmlns="http://www.w3.org/2000/svg"
   xmlns:sodipodi="http://sodipodi.sourceforge.net/DTD/sodipodi-0.dtd"
   xmlns:inkscape="http://www.inkscape.org/namespaces/inkscape" sodipodi:docname="runstroller.svg" inkscape:version="1.0 (4035a4fb49, 2020-05-01)" id="svg2009" version="1.1" viewBox="0 0 93.63504 75.188873" height="75.188873mm" width="93.63504mm">
   <defs id="defs2003" />
   <g transform="translate(-47.797213,-184.94357)" id="layer1" inkscape:groupmode="layer" inkscape:label="Layer 1">
      <path id="path2586" d="m 87.320418,260.00553 c -2.33739,-0.35312 -4.678,-1.98085 -6.34516,-4.41262 -0.30167,-0.44003 -0.5736,-0.80005 -0.6043,-0.80005 -0.21147,0 -1.63964,-2.29236 -2.12239,-3.40664 -0.38015,-0.87747 -0.38015,-0.87747 -2.61177,-0.89482 -2.22885,-0.0173 -3.42215,-0.14367 -3.86822,-0.40956 -0.71515,-0.42628 -4.44166,1.07348 -5.66643,2.28048 -0.52963,0.52195 -0.66705,0.48182 -1.21739,-0.35549 -0.44743,-0.68075 -1.15024,-2.00361 -1.15024,-2.16505 0,-0.38117 -0.55422,-0.94273 -0.9011,-0.91302 -0.3679,0.0315 -0.3679,0.0315 -0.42387,1.06383 -0.11106,2.04841 -0.76161,4.31845 -1.366485,4.76826 -0.132205,0.0983 -0.772041,0.81223 -1.421856,1.58648 -0.649816,0.77424 -1.304533,1.48267 -1.454926,1.57428 -0.842414,0.51315 -3.931968,0.60908 -5.196387,0.16136 -0.585885,-0.20746 -1.837354,-0.84228 -1.93553,-0.98182 -0.05434,-0.0772 -0.15574,-0.14042 -0.225334,-0.14042 -0.399653,0 -2.14268,-2.58741 -2.265557,-3.36307 -0.03528,-0.22269 -0.15871,-0.57373 -0.274295,-0.7801 -0.456124,-0.81438 -0.612948,-2.98287 -0.331216,-4.57991 1.036314,-5.87449 6.472942,-8.53629 11.245658,-5.50594 0.168471,0.10697 0.591222,0.35514 0.939446,0.55149 0.348224,0.19636 0.795779,0.49598 0.994565,0.66584 0.390196,0.33341 0.691507,0.29492 0.691507,-0.0883 0,-0.1871 0.12335,-0.30045 1.22524,-1.12592 0.36409,-0.27274 0.7894,-0.73377 1.18149,-1.28071 1.55486,-2.16891 5.81748,-7.04313 7.97935,-9.12423 0.52107,-0.5016 1.19195,-1.1728 1.49084,-1.49155 0.726,-0.77426 2.37919,-2.23608 4.17315,-3.6901 0.87937,-0.71274 0.88472,-0.74156 0.27081,-1.45939 -0.69044,-0.80732 -0.991,-1.73137 -0.74179,-2.28062 0.11705,-0.25799 1.56798,-1.63709 1.79783,-1.70883 0.46775,-0.14599 2.01356,0.91168 2.42208,1.65724 0.31099,0.56757 0.90139,0.60628 1.48754,0.0975 0.50443,-0.43782 1.13081,-0.75071 1.72297,-0.86067 2.4915,-0.46262 5.21099,-0.29875 7.84033,0.47245 1.72976,0.50735 2.21453,0.46384 3.10935,-0.27911 0.41562,-0.34509 2.22995,-1.48278 2.54988,-1.59894 0.26506,-0.0962 1.41952,-0.97157 1.860092,-1.41035 0.93828,-0.9345 1.14169,-2.12539 0.44524,-2.60682 -0.728932,-0.50389 -0.826412,-1.42832 -0.24951,-2.36603 0.37781,-0.61409 0.5662,-0.69998 1.11483,-0.50828 0.44343,0.15495 0.8836,0.049 1.40964,-0.3394 0.0963,-0.0711 0.60824,-0.15992 1.13772,-0.19743 1.58811,-0.1125 2.7332,-0.90698 4.56074,-3.1643 0.95152,-1.17529 1.20609,-2.64901 1.43208,-8.29049 0.10639,-2.65609 0.0911,-2.52752 0.46349,-3.90058 0.40934,-1.50938 0.30075,-1.73079 -0.84891,-1.73079 -1.20285,0 -1.43519,-0.31198 -1.44651,-1.94238 -0.005,-0.74295 -0.4209,-1.56749 -0.79034,-1.56749 -0.41688,0 -0.45068,-0.51779 -0.0886,-1.35814 0.5174,-1.201 0.39432,-1.39346 -0.92402,-1.4449 -1.16383,-0.0454 -1.7093,-0.30236 -1.18933,-0.56024 0.15226,-0.0755 0.52342,-0.34486 0.82481,-0.59855 0.30139,-0.25368 0.6512,-0.4918 0.77735,-0.52914 0.29401,-0.087 0.57165,-0.46158 0.91801,-1.2384 1.65919,-3.72117 5.70071,-3.17332 7.23466,0.98071 0.36933,1.00017 0.38927,1.19254 0.15451,1.4902 -0.49837,0.6319 -0.55555,1.4326 -0.14771,2.06821 0.28756,0.44814 0.34321,1.20745 0.14031,1.91442 -0.20014,0.69736 -0.17313,0.74361 0.77518,1.32789 1.35772,0.83653 1.84348,1.68132 3.98422,6.92909 0.26635,0.65295 0.60315,1.44271 0.74845,1.75503 0.2485,0.5342 0.64329,1.73394 0.79824,2.42586 0.0382,0.17033 0.19123,0.86715 0.34017,1.54848 0.39597,1.81137 1.35209,4.74735 1.84385,5.66203 0.269,0.50031 0.87368,2.06398 0.87629,2.266 8.7e-4,0.0682 0.21351,0.50645 0.47252,0.97384 0.67823,1.2239 1.03085,2.2772 1.08061,3.22785 0.0317,0.6046 0.0959,0.89009 0.29311,1.30297 0.37366,0.7822 0.34595,0.90654 -0.31008,1.39173 -0.8696,0.64314 -0.8597,0.60839 -0.86184,3.02537 -0.001,1.14066 0.0429,2.49202 0.0977,3.00301 0.0547,0.511 0.12154,2.06722 0.14842,3.45827 0.0732,3.78575 0.012,3.65617 1.97417,4.1784 2.00786,0.53439 3.04476,1.11147 4.45525,2.47953 2.54241,2.46593 3.86065,3.44142 4.68217,3.46475 0.84824,0.0241 2.87486,-0.12943 3.04159,-0.23042 0.43729,-0.26484 1.17195,0.27958 1.52511,1.13019 0.24542,0.59112 0.24542,0.59112 0.22352,2.60413 -0.0123,1.13314 0.0213,2.33593 0.077,2.75177 0.36871,2.75429 -1.02289,5.86808 -2.62255,5.86808 -1.02468,0 -1.15481,-0.23154 -1.20114,-2.13727 -0.0315,-1.29703 -0.0334,-1.3039 -0.69504,-2.55977 -0.16452,-0.31228 -0.32788,-0.63746 -0.36301,-0.72262 -0.0351,-0.0852 -0.21721,-0.4745 -0.40463,-0.86518 -0.235,-0.48989 -0.3275,-0.79211 -0.29804,-0.97387 0.15586,-0.96172 -1.73807,-2.56448 -3.97577,-3.36454 -1.28932,-0.46099 -2.72624,-1.12196 -4.05875,-1.86699 -1.71211,-0.95728 -3.09711,-1.57636 -3.93827,-1.76036 -1.05198,-0.23012 -1.81054,-0.52131 -2.05346,-0.78825 -0.19534,-0.21467 -1.04362,-2.20926 -1.28694,-3.02603 -0.0678,-0.22748 -0.27392,-0.66909 -0.45812,-0.98137 -0.18421,-0.31228 -0.40331,-0.73036 -0.4869,-0.92909 -0.34454,-0.81916 -1.14629,-2.16092 -1.29326,-2.16433 -0.13915,-0.003 -1.33395,1.15712 -1.63771,1.59048 -0.0701,0.10003 -0.33641,0.33952 -0.59176,0.5322 -0.70052,0.52858 -1.01738,1.32133 -0.82126,2.05467 0.17024,0.63654 0.79507,2.64258 0.88448,2.83964 0.3687,0.81264 0.53847,2.49197 0.53223,5.26445 -0.011,4.86873 0.3159,7.04793 1.28088,8.53912 0.42322,0.654 0.52354,0.97992 0.61984,2.01373 0.0602,0.64647 0.13429,0.96889 0.26894,1.17082 0.57313,0.85943 -0.58215,1.53234 -2.83352,1.65042 -0.72201,0.0379 -1.4858,0.10534 -1.69731,0.14993 -0.22473,0.0474 -0.48918,0.038 -0.63633,-0.0225 -0.16778,-0.069 -0.28766,-0.0691 -0.35934,-4.2e-4 -0.39224,0.37619 -4.11555,-0.15842 -4.85538,-0.69716 -0.48232,-0.35122 -0.38148,-1.19984 0.17169,-1.44485 1.13238,-0.50151 2.78202,-1.58198 2.78202,-1.82209 0,-0.622 1.06432,-1.58859 1.74919,-1.58859 1.09362,0 1.06459,-2.18371 -0.0837,-6.29714 -0.59374,-2.12693 -0.87697,-3.44076 -1.13495,-5.26482 -0.30933,-2.18713 -0.36793,-2.45827 -0.71369,-3.3023 -0.40466,-0.9878 -0.56557,-1.56965 -0.64267,-2.32383 -0.0793,-0.7758 0.10464,-1.77775 1.23184,-6.71006 0.11677,-0.51099 0.25017,-1.02199 0.29643,-1.13555 0.0463,-0.11355 0.24448,-0.71461 0.44049,-1.33567 0.196,-0.62107 0.39618,-1.21696 0.44484,-1.3242 0.0487,-0.10724 0.1413,-0.41204 0.20588,-0.67734 0.19252,-0.7909 0.62244,-2.0955 0.88885,-2.69727 0.49791,-1.12469 0.24043,-3.14 -0.81544,-6.38246 -0.4908,-1.50724 -0.72651,-1.62445 -1.88546,-0.93755 -0.17859,0.10585 -0.37798,0.19245 -0.44309,0.19245 -0.27255,0 -0.59741,0.581 -0.67176,1.20138 -0.0902,0.753 -0.2882,1.33121 -0.50029,1.46121 -0.55286,0.33888 -2.49,0.13896 -2.86923,-0.29611 -0.14842,-0.17028 -0.22037,-0.10459 -0.54569,0.4982 -0.17619,0.32647 -0.38706,0.64995 -0.46859,0.71884 -0.0957,0.0808 -0.16894,0.34104 -0.2066,0.73368 -0.0765,0.79774 -0.45264,1.18087 -2.36674,2.41084 -1.47598,0.94844 -1.65029,1.06701 -2.36793,1.61077 -0.38507,0.29178 -0.956122,0.70211 -1.269002,0.91186 -0.31287,0.20975 -0.82485,0.57365 -1.13772,0.80867 -0.31288,0.23503 -0.91884,0.65764 -1.34659,0.93916 -0.53257,0.3505 -0.80268,0.59319 -0.85689,0.76992 -0.11984,0.39065 -0.76538,0.92313 -1.04244,0.85987 -0.3534,-0.0807 -0.69236,0.45455 -0.69236,1.09329 0,0.27064 -0.081,0.76646 -0.18003,1.10182 -0.099,0.33536 -0.22011,0.86524 -0.26908,1.17752 -0.049,0.31227 -0.22395,0.96839 -0.38883,1.45804 -0.16488,0.48965 -0.29978,0.96204 -0.29978,1.04976 0,0.0877 -0.0651,0.29319 -0.14457,0.4566 -0.28884,0.59366 -0.0354,0.89781 0.76231,0.91497 1.2411,0.0267 2.68338,0.56601 3.20133,1.1971 0.37189,0.45312 0.72476,0.70512 1.12476,0.80321 0.48572,0.11912 0.58968,0.92122 0.28175,2.17373 -0.10582,0.43046 -0.10582,0.43046 -0.34565,0.20785 -0.13191,-0.12243 -0.27878,-0.19421 -0.32638,-0.15951 -0.15893,0.11586 -0.44024,-0.15115 -0.44024,-0.41786 0,-0.37811 -0.20701,-0.41108 -0.76889,-0.12243 -0.27506,0.1413 -0.69703,0.31223 -0.9377,0.37985 -1.20887,0.33965 -1.22497,0.35776 -0.8062,0.90694 0.26705,0.35021 0.93726,1.81767 0.93741,2.0525 8e-5,0.17257 0.302,0.45712 0.5814,0.548 0.15554,0.0506 0.24548,0.14591 0.23792,0.25212 -0.007,0.0939 0.0229,0.17077 0.0656,0.17077 0.0428,0 0.0778,-0.0765 0.0778,-0.17004 0,-0.20805 0.98476,-1.37843 1.15982,-1.37843 0.18386,0 0.38712,-0.31202 0.45748,-0.70228 0.0965,-0.53518 0.26454,-0.33582 0.26265,0.31155 -0.002,0.63781 -0.13404,0.90689 -0.44546,0.90689 -0.22809,0 -0.31598,0.19267 -0.69553,1.52484 -0.27635,0.96992 -0.27491,1.00053 0.12811,2.73381 0.55947,2.40609 0.66093,3.77275 0.40044,5.39351 -0.55798,3.47167 -2.28659,6.4514 -4.6507,8.01678 -0.28123,0.18622 -0.58254,0.41566 -0.66956,0.50988 -0.60578,0.65583 -3.37326,0.98632 -5.5304,0.66043 z m 4.30104,-2.70318 c 0.92142,-0.49648 1.63725,-1.03301 2.13148,-1.59757 0.7119,-0.8132 1.49304,-2.0982 1.74666,-2.87332 0.065,-0.19872 0.16239,-0.40776 0.21636,-0.46454 0.2377,-0.25005 0.60507,-2.74095 0.42375,-2.87314 -0.35786,-0.26088 -1.12573,0.50847 -1.27962,1.28208 -0.0992,0.49877 -0.42749,0.84 -1.23284,1.2815 -0.73544,0.40319 -0.82512,0.48662 -1.23082,1.14498 -0.58844,0.95491 -1.15885,1.59419 -2.03835,2.28447 -0.40378,0.3169 -0.75507,0.64053 -0.78066,0.71918 -0.0617,0.1895 -0.51904,0.46644 -0.90048,0.54521 -0.30939,0.0639 -0.3959,0.46948 -0.218,1.02199 0.12699,0.39437 2.10269,0.10023 3.16252,-0.47084 z m -34.344842,-1.5167 c 0.630891,-0.43611 0.982931,-0.91964 1.115144,-1.53165 0.06743,-0.31211 0.238551,-0.71219 0.400389,-0.93608 0.302932,-0.41909 0.463888,-1.13662 0.305473,-1.36177 -0.148403,-0.21092 0.119049,-0.3827 0.537606,-0.3453 0.317982,0.0284 0.37869,0.002 0.403447,-0.17302 0.01603,-0.11355 0.07634,-0.31794 0.134026,-0.4542 0.234443,-0.55376 0.135642,-1.61431 -0.147064,-1.57863 -0.188863,0.0238 -0.320225,-0.0506 -0.524624,-0.29718 -0.272674,-0.32897 -0.272674,-0.32897 -0.9851,-0.26438 -1.542736,0.13988 -2.170218,0.57306 -1.6515,1.14011 0.120336,0.13155 0.218793,0.32908 0.218793,0.43896 0,0.10989 0.04231,0.2497 0.09401,0.31069 0.286006,0.33736 0.150291,0.64272 -0.172436,0.38798 -0.839893,-0.66295 -1.538539,-0.75624 -1.808263,-0.24146 -0.07813,0.14913 -0.288296,0.10885 -0.454403,-0.0871 -0.08424,-0.0994 -0.231921,-0.18065 -0.32819,-0.18065 -0.152799,0 -0.175034,-0.0688 -0.175034,-0.54175 0,-0.29796 0.03142,-0.54185 0.06982,-0.54197 0.134526,-4.1e-4 0.487783,-0.53411 0.443544,-0.67009 -0.06605,-0.20303 0.230901,-0.83847 0.315965,-0.67612 0.0845,0.16126 0.385393,0.0592 0.745985,-0.25309 0.144404,-0.12505 0.50087,-0.39485 0.792146,-0.59955 0.291276,-0.2047 0.599748,-0.46363 0.685493,-0.57539 0.08575,-0.11176 0.359405,-0.25912 0.608132,-0.32748 1.161014,-0.31908 1.073527,-0.98378 -0.247908,-1.88351 -3.358631,-2.2868 -7.832796,0.70164 -7.832796,5.23179 0,0.81752 0.21295,2.18244 0.356865,2.28736 0.0444,0.0324 0.08072,0.15112 0.08072,0.26391 0,0.11278 0.09157,0.31307 0.20348,0.44508 0.111914,0.13201 0.253353,0.38204 0.314308,0.55562 0.140223,0.39931 0.454214,0.74667 0.508739,0.5628 0.02105,-0.071 0.09544,-0.12904 0.165328,-0.12904 0.101317,0 0.107445,0.0432 0.03025,0.21338 -0.126265,0.27829 0.05571,0.61717 0.53037,0.98769 0.191369,0.14939 0.347943,0.31426 0.347943,0.36639 0,0.16935 0.557155,0.37499 1.226845,0.45281 0.360128,0.0418 0.772925,0.14018 0.917328,0.21853 0.476438,0.25851 2.29461,0.1185 2.77517,-0.2137 z m -1.81248,-3.16065 c -0.02975,-0.0568 -0.01238,-0.10323 0.03859,-0.10323 0.05097,0 0.09268,0.0464 0.09268,0.10323 0,0.0568 -0.01737,0.10323 -0.03859,0.10323 -0.02123,0 -0.06293,-0.0464 -0.09268,-0.10323 z m -0.299401,-0.57638 c 0.0042,-0.12026 0.02494,-0.14472 0.05288,-0.0624 0.02528,0.0745 0.02217,0.16356 -0.0069,0.19786 -0.02908,0.0343 -0.04977,-0.0267 -0.04597,-0.13549 z m -0.0056,-0.48175 c 0.0011,-0.18782 0.01758,-0.20264 0.08618,-0.0774 0.109652,0.20014 0.109652,0.30969 0,0.30969 -0.04814,0 -0.08691,-0.10452 -0.08618,-0.23227 z m -0.317533,-4.87085 c -0.03573,-0.10983 -0.01073,-0.21841 0.06277,-0.27263 0.151273,-0.11157 0.227481,0.18283 0.08947,0.34563 -0.06546,0.0772 -0.110373,0.0557 -0.152235,-0.073 z m 0.161459,-0.88432 c 0,-0.19872 0.01801,-0.28001 0.04002,-0.18065 0.02201,0.0994 0.02201,0.26195 0,0.36131 -0.02201,0.0994 -0.04002,0.0181 -0.04002,-0.18066 z m 32.522657,8.81839 c 1.27275,-0.41868 2.93663,-1.67514 2.62002,-1.97847 -0.14766,-0.14148 -1.85897,-0.64601 -2.19116,-0.64601 -0.14237,0 -0.48575,-0.0693 -0.76307,-0.15412 -0.27731,-0.0848 -0.67683,-0.13584 -0.8878,-0.1135 -0.21098,0.0223 -0.46761,0.0452 -0.5703,0.0509 -0.10337,0.006 -0.20566,0.0958 -0.22918,0.20187 -0.0331,0.14949 -0.16064,0.20736 -0.58019,0.26336 -0.62465,0.0834 -0.6857,0.0532 -0.85391,-0.42165 -0.0705,-0.19895 -0.2585,-0.44695 -0.42866,-0.56537 -0.16671,-0.11602 -0.30311,-0.27096 -0.30311,-0.34431 0,-0.0737 -0.12723,-0.15064 -0.28443,-0.172 -1.11324,-0.15126 -1.275,0.67486 -0.49694,2.53792 0.3398,0.81364 0.53333,0.92511 1.65502,0.95326 0.73242,0.0184 1.01037,0.0657 1.18666,0.20192 0.45905,0.35479 1.37172,0.43469 2.12705,0.18622 z m -1.64936,-0.75691 c 0,-0.048 0.0591,-0.14518 0.13128,-0.21587 0.10686,-0.10461 0.13127,-0.0994 0.13127,0.0279 0,0.086 -0.0591,0.18318 -0.13127,0.21586 -0.0722,0.0327 -0.13128,0.0201 -0.13128,-0.0279 z m -0.65638,-0.73202 c -0.0297,-0.0568 0.01,-0.10324 0.0875,-0.10324 0.0779,0 0.11726,0.0465 0.0875,0.10324 -0.0297,0.0568 -0.0691,0.10323 -0.0875,0.10323 -0.0184,0 -0.0578,-0.0465 -0.0875,-0.10323 z m 0.83141,0 c 0,-0.0568 0.0591,-0.10324 0.13128,-0.10324 0.0722,0 0.13128,0.0465 0.13128,0.10324 0,0.0568 -0.0591,0.10323 -0.13128,0.10323 -0.0722,0 -0.13128,-0.0465 -0.13128,-0.10323 z m -3.32565,-6.16029 c 0,-0.3793 0,-0.3793 0.21231,-0.14403 0.11809,0.13086 0.25775,0.20216 0.31468,0.16065 0.0984,-0.0717 0.0905,-0.23369 -0.0514,-1.05675 -0.0498,-0.28902 -0.0337,-0.3355 0.11641,-0.3355 0.31293,0 0.546,-0.70902 0.42304,-1.28693 -0.0644,-0.3024 -0.44375,-0.18279 -0.53862,0.1698 -0.0286,0.10645 -0.14382,0.26445 -0.25595,0.35111 -0.25327,0.19574 -0.77836,1.75156 -0.69659,2.06394 0.0212,0.081 0.057,0.21701 0.0796,0.30217 0.092,0.34748 0.39658,0.17511 0.39658,-0.22446 z m 10.12207,-2.63266 c -0.0577,-0.26553 -0.45303,-0.8076 -0.58898,-0.8076 -0.22543,0 -0.16384,0.3471 0.13893,0.78294 0.3389,0.48785 0.55327,0.49959 0.45005,0.0247 z m -2.91057,-0.83341 c 0.4101,-0.75221 0.5396,-2.09063 0.22747,-2.35107 -0.74421,-0.62095 -2.05357,0.83291 -1.80447,2.0036 0.12092,0.56833 1.31334,0.83106 1.577,0.34747 z m -2.1355,-0.18066 c 0,-0.0568 -0.0394,-0.10323 -0.0875,-0.10323 -0.0481,0 -0.0875,0.0465 -0.0875,0.10323 0,0.0568 0.0394,0.10323 0.0875,0.10323 0.0481,0 0.0875,-0.0464 0.0875,-0.10323 z m 8.18802,-6.55193 c 0.15812,-0.14107 0.14431,-0.15179 -0.19932,-0.15485 -0.29289,-0.003 -0.35879,0.0287 -0.31883,0.15157 0.0641,0.19701 0.29933,0.1985 0.51815,0.003 z m -0.22395,-0.57715 c 0,-0.0534 -0.0394,-0.0971 -0.0875,-0.0971 -0.0481,0 -0.0875,0.0724 -0.0875,0.16094 0,0.0885 0.0394,0.13223 0.0875,0.0971 0.0481,-0.0351 0.0875,-0.10751 0.0875,-0.16094 z m 1.56575,-12.3301 c 0.35132,-0.2555 0.6911,-0.46454 0.75505,-0.46454 0.064,0 0.28667,-0.15309 0.49493,-0.34021 0.20826,-0.18712 0.80017,-0.58704 1.31535,-0.88873 0.515192,-0.30169 0.948402,-0.58471 0.962692,-0.62894 0.0143,-0.0442 0.16764,-0.16691 0.34078,-0.27263 0.74694,-0.45608 1.26455,-0.83316 1.55836,-1.13527 0.17313,-0.17802 0.47231,-0.40094 0.66485,-0.49539 1.21666,-0.5968 1.34527,-1.57726 0.26255,-2.00154 -1.24595,-0.48825 -1.6397,-0.40182 -1.74124,0.3822 -0.11948,0.92255 -1.27607,2.79972 -1.725,2.79972 -0.0497,0 -0.255052,0.1312 -0.456262,0.29155 -0.48253,0.38455 -2.03341,1.36015 -2.16218,1.36015 -0.0556,0 -0.30857,0.20905 -0.56211,0.46455 -0.25353,0.2555 -0.49301,0.46454 -0.53217,0.46454 -0.13128,0 -0.39128,0.33989 -0.39128,0.51151 0,0.54884 0.41866,0.53266 1.21568,-0.047 z" style="fill:#ffffff;fill-opacity:1;stroke-width:0.0950503" />
   </g>
</svg>
